<?xml version="1.0" ?><svg xmlns="http://www.w3.org/2000/svg" width="168" height="168" viewBox="0 0 168 168" fill="none"><path fill-rule="evenodd" clip-rule="evenodd" d="M104.416 24.8787C108.367 20.2087 115.466 19.9135 119.792 24.239L119.792 24.2391L130.812 35.2595L130.813 35.2597C134.657 39.105 134.914 45.2559 131.4 49.4077C131.4 49.4077 131.4 49.4078 131.4 49.4079L58.8628 135.134C58.5579 135.495 58.183 135.789 57.7608 136L43.0828 143.339H139.854C141.779 143.339 143.34 144.9 143.34 146.825C143.34 148.75 141.779 150.31 139.854 150.31H28.318C26.7015 150.31 25.2971 149.199 24.9257 147.626C24.5543 146.052 25.3134 144.43 26.7592 143.707L54.0034 130.085L126.079 44.9048L126.079 44.9046C127.25 43.5209 127.165 41.4705 125.883 40.1885L114.863 29.1684C113.421 27.7264 111.054 27.8249 109.737 29.3816L107.076 27.1301L109.737 29.3816L38.3834 113.709L31.6246 133.985C31.0159 135.811 29.042 136.798 27.2158 136.189C25.3896 135.581 24.4026 133.607 25.0114 131.781L31.9824 110.868C32.1226 110.447 32.3418 110.057 32.6282 109.718L104.416 24.8787Z" fill="black"/></svg>